<svg xmlns="http://www.w3.org/2000/svg" width="16" height="16" viewBox="0 0 16 16">
  <metadata><?xpacket begin="﻿" id="W5M0MpCehiHzreSzNTczkc9d"?>
<x:xmpmeta xmlns:x="adobe:ns:meta/" x:xmptk="Adobe XMP Core 5.6-c138 79.159824, 2016/09/14-01:09:01        ">
   <rdf:RDF xmlns:rdf="http://www.w3.org/1999/02/22-rdf-syntax-ns#">
      <rdf:Description rdf:about=""/>
   </rdf:RDF>
</x:xmpmeta>
                                                                                                    
                                                                                                    
                                                                                                    
                                                                                                    
                                                                                                    
                                                                                                    
                                                                                                    
                                                                                                    
                                                                                                    
                                                                                                    
                                                                                                    
                                                                                                    
                                                                                                    
                                                                                                    
                                                                                                    
                                                                                                    
                                                                                                    
                                                                                                    
                                                                                                    
                                                                                                    
                           
<?xpacket end="w"?></metadata>
<defs>
    <style>
      .cls-1 {
        fill: #21c1b7;
      }

      .cls-2 {
        fill: #fff;
        fill-rule: evenodd;
      }
    </style>
  </defs>
  <g id="Artboard_1" data-name="Artboard 1">
    <circle class="cls-1" cx="8" cy="8" r="8"/>
    <path id="_2" data-name="2" class="cls-2" d="M6,11.21a3.76,3.76,0,0,1,.482-0.619Q6.771,10.283,7.8,9.42A18.478,18.478,0,0,0,9.561,7.782a4.26,4.26,0,0,0,.759-1.136,2.791,2.791,0,0,0,.228-1.1,2.438,2.438,0,0,0-.781-1.841,2.95,2.95,0,0,0-2.12-.743,3.1,3.1,0,0,0-2.114.689,2.89,2.89,0,0,0-.908,2L5.8,5.776a1.873,1.873,0,0,1,.5-1.371,1.784,1.784,0,0,1,1.32-.5,1.752,1.752,0,0,1,1.266.467,1.527,1.527,0,0,1,.486,1.146A2.36,2.36,0,0,1,8.841,6.9a12.668,12.668,0,0,1-2.05,1.971A11.78,11.78,0,0,0,5.3,10.277a4.194,4.194,0,0,0-.752,1.238,2.019,2.019,0,0,0-.133.793h6.151v-1.1H6Z"/>
  </g>
</svg>
