<?xml version="1.0" encoding="UTF-8" standalone="no"?><svg xmlns="http://www.w3.org/2000/svg" xmlns:xlink="http://www.w3.org/1999/xlink" contentScriptType="application/ecmascript" contentStyleType="text/css" height="109px" preserveAspectRatio="none" style="width:220px;height:109px;" version="1.1" viewBox="0 0 220 109" width="220px" zoomAndPan="magnify"><defs/><g><text fill="#000000" font-family="sans-serif" font-size="12" lengthAdjust="spacingAndGlyphs" textLength="53" x="7" y="18.6016">Tipologia</text><rect fill="#EEEEEE" height="17.1328" style="stroke: #000000; stroke-width: 1.0;" width="143" x="62" y="7"/><text fill="#000000" font-family="sans-serif" font-size="12" lengthAdjust="spacingAndGlyphs" textLength="95" x="64" y="20.6016">Tipologia 1 Anta</text><line style="stroke: #000000; stroke-width: 1.0;" x1="194" x2="194" y1="7" y2="24.1328"/><polygon fill="#000000" points="197,13,203,13,200,19.1328" style="stroke: #000000; stroke-width: 1.0;"/><text fill="#000000" font-family="sans-serif" font-size="12" lengthAdjust="spacingAndGlyphs" textLength="26" x="7" y="38.7344">Anta</text><text fill="#000000" font-family="sans-serif" font-size="12" lengthAdjust="spacingAndGlyphs" textLength="0" x="69" y="38.7344"/><line style="stroke: #000000; stroke-width: 1.0;" x1="63" x2="194" y1="41.2656" y2="41.2656"/><line style="stroke: #000000; stroke-width: 1.0;" x1="63" x2="63" y1="38.2656" y2="40.2656"/><line style="stroke: #000000; stroke-width: 1.0;" x1="194" x2="194" y1="38.2656" y2="40.2656"/><line style="stroke: #000000; stroke-width: 1.0;" x1="6" x2="61" y1="6" y2="6"/><line style="stroke: #000000; stroke-width: 1.0;" x1="61" x2="207" y1="6" y2="6"/><line style="stroke: #000000; stroke-width: 1.0;" x1="6" x2="61" y1="44.2656" y2="44.2656"/><line style="stroke: #000000; stroke-width: 1.0;" x1="61" x2="207" y1="44.2656" y2="44.2656"/><line style="stroke: #000000; stroke-width: 1.0;" x1="6" x2="6" y1="6" y2="26.1328"/><line style="stroke: #000000; stroke-width: 1.0;" x1="207" x2="207" y1="26.1328" y2="44.2656"/><line style="stroke: #000000; stroke-width: 1.0;" x1="207" x2="207" y1="6" y2="26.1328"/><line style="stroke: #000000; stroke-width: 1.0;" x1="6" x2="6" y1="26.1328" y2="44.2656"/><text fill="#000000" font-family="sans-serif" font-size="12" lengthAdjust="spacingAndGlyphs" textLength="53" x="7" y="58.8672">Tipologia</text><rect fill="#EEEEEE" height="17.1328" style="stroke: #000000; stroke-width: 1.0;" width="143" x="62" y="47.2656"/><text fill="#000000" font-family="sans-serif" font-size="12" lengthAdjust="spacingAndGlyphs" textLength="95" x="64" y="60.8672">Tipologia 2 Ante</text><line style="stroke: #000000; stroke-width: 1.0;" x1="194" x2="194" y1="47.2656" y2="64.3984"/><polygon fill="#000000" points="197,53.2656,203,53.2656,200,59.3984" style="stroke: #000000; stroke-width: 1.0;"/><text fill="#000000" font-family="sans-serif" font-size="12" lengthAdjust="spacingAndGlyphs" textLength="38" x="7" y="79">Anta 1</text><text fill="#000000" font-family="sans-serif" font-size="12" lengthAdjust="spacingAndGlyphs" textLength="0" x="69" y="79"/><line style="stroke: #000000; stroke-width: 1.0;" x1="63" x2="194" y1="81.5313" y2="81.5313"/><line style="stroke: #000000; stroke-width: 1.0;" x1="63" x2="63" y1="78.5313" y2="80.5313"/><line style="stroke: #000000; stroke-width: 1.0;" x1="194" x2="194" y1="78.5313" y2="80.5313"/><text fill="#000000" font-family="sans-serif" font-size="12" lengthAdjust="spacingAndGlyphs" textLength="38" x="7" y="97.1328">Anta 2</text><text fill="#000000" font-family="sans-serif" font-size="12" lengthAdjust="spacingAndGlyphs" textLength="0" x="69" y="97.1328"/><line style="stroke: #000000; stroke-width: 1.0;" x1="63" x2="194" y1="99.6641" y2="99.6641"/><line style="stroke: #000000; stroke-width: 1.0;" x1="63" x2="63" y1="96.6641" y2="98.6641"/><line style="stroke: #000000; stroke-width: 1.0;" x1="194" x2="194" y1="96.6641" y2="98.6641"/><line style="stroke: #000000; stroke-width: 1.0;" x1="6" x2="61" y1="46.2656" y2="46.2656"/><line style="stroke: #000000; stroke-width: 1.0;" x1="61" x2="207" y1="46.2656" y2="46.2656"/><line style="stroke: #000000; stroke-width: 1.0;" x1="6" x2="61" y1="102.6641" y2="102.6641"/><line style="stroke: #000000; stroke-width: 1.0;" x1="61" x2="207" y1="102.6641" y2="102.6641"/><line style="stroke: #000000; stroke-width: 1.0;" x1="6" x2="6" y1="46.2656" y2="66.3984"/><line style="stroke: #000000; stroke-width: 1.0;" x1="207" x2="207" y1="84.5313" y2="102.6641"/><line style="stroke: #000000; stroke-width: 1.0;" x1="207" x2="207" y1="66.3984" y2="84.5313"/><line style="stroke: #000000; stroke-width: 1.0;" x1="207" x2="207" y1="46.2656" y2="66.3984"/><line style="stroke: #000000; stroke-width: 1.0;" x1="6" x2="6" y1="84.5313" y2="102.6641"/><line style="stroke: #000000; stroke-width: 1.0;" x1="6" x2="6" y1="66.3984" y2="84.5313"/></g></svg>