<?xml version="1.0" encoding="UTF-8" standalone="no"?>
<!DOCTYPE svg PUBLIC "-//W3C//DTD SVG 1.1//EN"
 "http://www.w3.org/Graphics/SVG/1.1/DTD/svg11.dtd">
<!-- Generated by graphviz version 2.40.1 (20161225.0304)
 -->
<!-- Title: g Pages: 1 -->
<svg width="444pt" height="98pt"
 viewBox="0.00 0.00 443.95 98.00" xmlns="http://www.w3.org/2000/svg" xmlns:xlink="http://www.w3.org/1999/xlink">
<g id="graph0" class="graph" transform="scale(1 1) rotate(0) translate(4 94)">
<title>g</title>
<polygon fill="#ffffff" stroke="transparent" points="-4,4 -4,-94 439.9486,-94 439.9486,4 -4,4"/>
<!-- root -->
<g id="node1" class="node">
<title>root</title>
<ellipse fill="none" stroke="#000000" cx="43.3981" cy="-45" rx="43.2964" ry="18"/>
<text text-anchor="middle" x="43.3981" y="-41.7" font-family="Helvetica,sans-Serif" font-size="11.00" fill="#000000">root: 1200€</text>
</g>
<!-- tipologia -->
<g id="node2" class="node">
<title>tipologia</title>
<ellipse fill="none" stroke="#000000" cx="205.9076" cy="-72" rx="33.5795" ry="18"/>
<text text-anchor="middle" x="205.9076" y="-68.7" font-family="Helvetica,sans-Serif" font-size="11.00" fill="#000000">tipologia</text>
</g>
<!-- root&#45;&#45;tipologia -->
<g id="edge1" class="edge">
<title>root&#45;&#45;tipologia</title>
<path fill="none" stroke="#ff0000" d="M83.9869,-51.7436C111.7204,-56.3514 147.9699,-62.374 173.7152,-66.6514"/>
<text text-anchor="middle" x="121.1243" y="-62.2" font-family="Helvetica,sans-Serif" font-size="11.00" fill="#000000">1000€</text>
</g>
<!-- colore_interno -->
<g id="node3" class="node">
<title>colore_interno</title>
<ellipse fill="none" stroke="#000000" cx="205.9076" cy="-18" rx="50.4103" ry="18"/>
<text text-anchor="middle" x="205.9076" y="-14.7" font-family="Helvetica,sans-Serif" font-size="11.00" fill="#000000">colore_interno</text>
</g>
<!-- root&#45;&#45;colore_interno -->
<g id="edge2" class="edge">
<title>root&#45;&#45;colore_interno</title>
<path fill="none" stroke="#0000ff" d="M83.9869,-38.2564C107.1138,-34.414 136.1627,-29.5877 160.1039,-25.61"/>
<text text-anchor="middle" x="121.1243" y="-36.2" font-family="Helvetica,sans-Serif" font-size="11.00" fill="#000000">20%</text>
</g>
<!-- supptip -->
<g id="node5" class="node">
<title>supptip</title>
<polygon fill="none" stroke="#ff0000" points="387.1156,-90 336.1957,-90 336.1957,-54 393.1156,-54 393.1156,-84 387.1156,-90"/>
<polyline fill="none" stroke="#ff0000" points="387.1156,-90 387.1156,-84 "/>
<polyline fill="none" stroke="#ff0000" points="393.1156,-84 387.1156,-84 "/>
<text text-anchor="middle" x="364.6557" y="-68.7" font-family="Helvetica,sans-Serif" font-size="11.00" fill="#000000">Grigliato</text>
</g>
<!-- tipologia&#45;&#45;supptip -->
<g id="edge4" class="edge">
<title>tipologia&#45;&#45;supptip</title>
<path fill="none" stroke="#ff0000" d="M239.5739,-72C268.2433,-72 308.981,-72 336.0856,-72"/>
</g>
<!-- supp -->
<g id="node4" class="node">
<title>supp</title>
<polygon fill="none" stroke="#0000ff" points="429.7422,-36 293.5691,-36 293.5691,0 435.7422,0 435.7422,-30 429.7422,-36"/>
<polyline fill="none" stroke="#0000ff" points="429.7422,-36 429.7422,-30 "/>
<polyline fill="none" stroke="#0000ff" points="435.7422,-30 429.7422,-30 "/>
<text text-anchor="middle" x="364.6557" y="-14.7" font-family="Helvetica,sans-Serif" font-size="11.00" fill="#000000">Supplemento Percentuale</text>
</g>
<!-- colore_interno&#45;&#45;supp -->
<g id="edge3" class="edge">
<title>colore_interno&#45;&#45;supp</title>
<path fill="none" stroke="#0000ff" d="M256.5729,-18C268.2783,-18 280.9465,-18 293.3491,-18"/>
</g>
</g>
</svg>
