<?xml version="1.0" encoding="UTF-8" standalone="no"?>
<!DOCTYPE svg PUBLIC "-//W3C//DTD SVG 1.1//EN"
 "http://www.w3.org/Graphics/SVG/1.1/DTD/svg11.dtd">
<!-- Generated by graphviz version 2.40.1 (20161225.0304)
 -->
<!-- Title: %3 Pages: 1 -->
<svg width="364pt" height="98pt"
 viewBox="0.00 0.00 363.84 98.00" xmlns="http://www.w3.org/2000/svg" xmlns:xlink="http://www.w3.org/1999/xlink">
<g id="graph0" class="graph" transform="scale(1 1) rotate(0) translate(4 94)">
<title>%3</title>
<polygon fill="#ffffff" stroke="transparent" points="-4,4 -4,-94 359.8447,-94 359.8447,4 -4,4"/>
<!-- Tipologia -->
<g id="node1" class="node">
<title>Tipologia</title>
<path fill="none" stroke="#0000ff" d="M48.355,-63C48.355,-63 11.8814,-63 11.8814,-63 5.8814,-63 -.1186,-57 -.1186,-51 -.1186,-51 -.1186,-39 -.1186,-39 -.1186,-33 5.8814,-27 11.8814,-27 11.8814,-27 48.355,-27 48.355,-27 54.355,-27 60.355,-33 60.355,-39 60.355,-39 60.355,-51 60.355,-51 60.355,-57 54.355,-63 48.355,-63"/>
<text text-anchor="middle" x="30.1182" y="-41.7" font-family="Helvetica,sans-Serif" font-size="11.00" fill="#000000">Tipologia</text>
</g>
<!-- Tipologia1Anta -->
<g id="node2" class="node">
<title>Tipologia1Anta</title>
<path fill="none" stroke="#0000ff" d="M213.5737,-90C213.5737,-90 148.6089,-90 148.6089,-90 142.6089,-90 136.6089,-84 136.6089,-78 136.6089,-78 136.6089,-66 136.6089,-66 136.6089,-60 142.6089,-54 148.6089,-54 148.6089,-54 213.5737,-54 213.5737,-54 219.5737,-54 225.5737,-60 225.5737,-66 225.5737,-66 225.5737,-78 225.5737,-78 225.5737,-84 219.5737,-90 213.5737,-90"/>
<text text-anchor="middle" x="181.0913" y="-68.7" font-family="Helvetica,sans-Serif" font-size="11.00" fill="#000000">Tipologia1Anta</text>
</g>
<!-- Tipologia&#45;&#45;Tipologia1Anta -->
<g id="edge1" class="edge">
<title>Tipologia&#45;&#45;Tipologia1Anta</title>
<path fill="none" stroke="#0000ff" d="M60.307,-50.399C82.0777,-54.2924 111.8254,-59.6125 136.3506,-63.9986"/>
<text text-anchor="middle" x="98.4182" y="-62.2" font-family="Helvetica,sans-Serif" font-size="11.00" fill="#0000ff">Estende</text>
</g>
<!-- Tipologia2Ante -->
<g id="node3" class="node">
<title>Tipologia2Ante</title>
<path fill="none" stroke="#0000ff" d="M213.5737,-36C213.5737,-36 148.6089,-36 148.6089,-36 142.6089,-36 136.6089,-30 136.6089,-24 136.6089,-24 136.6089,-12 136.6089,-12 136.6089,-6 142.6089,0 148.6089,0 148.6089,0 213.5737,0 213.5737,0 219.5737,0 225.5737,-6 225.5737,-12 225.5737,-12 225.5737,-24 225.5737,-24 225.5737,-30 219.5737,-36 213.5737,-36"/>
<text text-anchor="middle" x="181.0913" y="-14.7" font-family="Helvetica,sans-Serif" font-size="11.00" fill="#000000">Tipologia2Ante</text>
</g>
<!-- Tipologia&#45;&#45;Tipologia2Ante -->
<g id="edge2" class="edge">
<title>Tipologia&#45;&#45;Tipologia2Ante</title>
<path fill="none" stroke="#0000ff" d="M60.307,-39.601C82.0777,-35.7076 111.8254,-30.3875 136.3506,-26.0014"/>
<text text-anchor="middle" x="98.4182" y="-38.2" font-family="Helvetica,sans-Serif" font-size="11.00" fill="#0000ff">Estende</text>
</g>
<!-- T_1Anta -->
<g id="node4" class="node">
<title>T_1Anta</title>
<path fill="none" stroke="#ff0000" d="M343.6377,-90C343.6377,-90 310.4687,-90 310.4687,-90 304.4687,-90 298.4687,-84 298.4687,-78 298.4687,-78 298.4687,-66 298.4687,-66 298.4687,-60 304.4687,-54 310.4687,-54 310.4687,-54 343.6377,-54 343.6377,-54 349.6377,-54 355.6377,-60 355.6377,-66 355.6377,-66 355.6377,-78 355.6377,-78 355.6377,-84 349.6377,-90 343.6377,-90"/>
<text text-anchor="middle" x="327.0532" y="-68.7" font-family="Helvetica,sans-Serif" font-size="11.00" fill="#000000">T_1Anta</text>
</g>
<!-- Tipologia1Anta&#45;&#45;T_1Anta -->
<g id="edge3" class="edge">
<title>Tipologia1Anta&#45;&#45;T_1Anta</title>
<path fill="none" stroke="#ff0000" d="M225.6778,-72C249.3199,-72 277.672,-72 298.3737,-72"/>
<text text-anchor="middle" x="261.9221" y="-74.2" font-family="Helvetica,sans-Serif" font-size="11.00" fill="#ff0000">Articolo</text>
</g>
<!-- T_2Ante -->
<g id="node5" class="node">
<title>T_2Ante</title>
<path fill="none" stroke="#ff0000" d="M343.6377,-36C343.6377,-36 310.4687,-36 310.4687,-36 304.4687,-36 298.4687,-30 298.4687,-24 298.4687,-24 298.4687,-12 298.4687,-12 298.4687,-6 304.4687,0 310.4687,0 310.4687,0 343.6377,0 343.6377,0 349.6377,0 355.6377,-6 355.6377,-12 355.6377,-12 355.6377,-24 355.6377,-24 355.6377,-30 349.6377,-36 343.6377,-36"/>
<text text-anchor="middle" x="327.0532" y="-14.7" font-family="Helvetica,sans-Serif" font-size="11.00" fill="#000000">T_2Ante</text>
</g>
<!-- Tipologia2Ante&#45;&#45;T_2Ante -->
<g id="edge4" class="edge">
<title>Tipologia2Ante&#45;&#45;T_2Ante</title>
<path fill="none" stroke="#ff0000" d="M225.6778,-18C249.3199,-18 277.672,-18 298.3737,-18"/>
<text text-anchor="middle" x="261.9221" y="-20.2" font-family="Helvetica,sans-Serif" font-size="11.00" fill="#ff0000">Articolo</text>
</g>
</g>
</svg>
