<?xml version="1.0" encoding="UTF-8" standalone="no"?>
<!DOCTYPE svg PUBLIC "-//W3C//DTD SVG 1.1//EN"
 "http://www.w3.org/Graphics/SVG/1.1/DTD/svg11.dtd">
<!-- Generated by graphviz version 2.40.1 (20161225.0304)
 -->
<!-- Title: g Pages: 1 -->
<svg width="228pt" height="194pt"
 viewBox="0.00 0.00 227.62 194.00" xmlns="http://www.w3.org/2000/svg" xmlns:xlink="http://www.w3.org/1999/xlink">
<g id="graph0" class="graph" transform="scale(1 1) rotate(0) translate(4 190)">
<title>g</title>
<polygon fill="#ffffff" stroke="transparent" points="-4,4 -4,-190 223.6183,-190 223.6183,4 -4,4"/>
<!-- root -->
<g id="node1" class="node">
<title>root</title>
<ellipse fill="none" stroke="#000000" cx="27" cy="-93" rx="27" ry="18"/>
<text text-anchor="middle" x="27" y="-89.7" font-family="Helvetica,sans-Serif" font-size="11.00" fill="#000000">root</text>
</g>
<!-- interno -->
<g id="node2" class="node">
<title>interno</title>
<ellipse fill="none" stroke="#000000" cx="185.3546" cy="-168" rx="29.4368" ry="18"/>
<text text-anchor="middle" x="185.3546" y="-164.7" font-family="Helvetica,sans-Serif" font-size="11.00" fill="#000000">interno</text>
</g>
<!-- root&#45;&#45;interno -->
<g id="edge1" class="edge">
<title>root&#45;&#45;interno</title>
<path fill="none" stroke="#ff0000" d="M27.6183,-111.1554C27.6183,-133.3519 27.6183,-168 27.6183,-168 27.6183,-168 110.4391,-168 156.0553,-168"/>
<text text-anchor="middle" x="102.5454" y="-170.2" font-family="Helvetica,sans-Serif" font-size="11.00" fill="#000000">10%</text>
</g>
<!-- esterno -->
<g id="node3" class="node">
<title>esterno</title>
<ellipse fill="none" stroke="#000000" cx="185.3546" cy="-118" rx="31.0332" ry="18"/>
<text text-anchor="middle" x="185.3546" y="-114.7" font-family="Helvetica,sans-Serif" font-size="11.00" fill="#000000">esterno</text>
</g>
<!-- root&#45;&#45;esterno -->
<g id="edge2" class="edge">
<title>root&#45;&#45;esterno</title>
<path fill="none" stroke="#ff0000" d="M46.7355,-105.5C76.2514,-105.5 131.7384,-105.5 162.8108,-105.5"/>
<text text-anchor="middle" x="102.5454" y="-120.2" font-family="Helvetica,sans-Serif" font-size="11.00" fill="#000000">20%</text>
</g>
<!-- app_sup -->
<g id="node4" class="node">
<title>app_sup</title>
<ellipse fill="none" stroke="#000000" cx="185.3546" cy="-68" rx="34.0291" ry="18"/>
<text text-anchor="middle" x="185.3546" y="-64.7" font-family="Helvetica,sans-Serif" font-size="11.00" fill="#000000">app_sup</text>
</g>
<!-- root&#45;&#45;app_sup -->
<g id="edge3" class="edge">
<title>root&#45;&#45;app_sup</title>
<path fill="none" stroke="#0000ff" d="M46.7355,-80.5C75.5881,-80.5 129.2577,-80.5 160.6796,-80.5"/>
<text text-anchor="middle" x="102.5454" y="-70.2" font-family="Helvetica,sans-Serif" font-size="11.00" fill="#000000">100€ + 30%</text>
</g>
<!-- app_inf -->
<g id="node5" class="node">
<title>app_inf</title>
<ellipse fill="none" stroke="#000000" cx="185.3546" cy="-18" rx="30.8259" ry="18"/>
<text text-anchor="middle" x="185.3546" y="-14.7" font-family="Helvetica,sans-Serif" font-size="11.00" fill="#000000">app_inf</text>
</g>
<!-- root&#45;&#45;app_inf -->
<g id="edge4" class="edge">
<title>root&#45;&#45;app_inf</title>
<path fill="none" stroke="#0000ff" d="M27.6183,-74.8446C27.6183,-52.6481 27.6183,-18 27.6183,-18 27.6183,-18 108.6628,-18 154.567,-18"/>
<text text-anchor="middle" x="102.5454" y="-20.2" font-family="Helvetica,sans-Serif" font-size="11.00" fill="#000000">200€ + 30%</text>
</g>
</g>
</svg>
