<?xml version="1.0" encoding="UTF-8" standalone="no"?><svg xmlns="http://www.w3.org/2000/svg" xmlns:xlink="http://www.w3.org/1999/xlink" contentScriptType="application/ecmascript" contentStyleType="text/css" height="65px" preserveAspectRatio="none" style="width:423px;height:65px;" version="1.1" viewBox="0 0 423 65" width="423px" zoomAndPan="magnify"><defs/><g><text fill="#000000" font-family="sans-serif" font-size="12" lengthAdjust="spacingAndGlyphs" textLength="53" x="7" y="18.6016">Tipologia</text><rect fill="#EEEEEE" height="17.1328" style="stroke: #000000; stroke-width: 1.0;" width="143" x="62" y="7"/><text fill="#000000" font-family="sans-serif" font-size="12" lengthAdjust="spacingAndGlyphs" textLength="95" x="64" y="20.6016">Tipologia 1 Anta</text><line style="stroke: #000000; stroke-width: 1.0;" x1="194" x2="194" y1="7" y2="24.1328"/><polygon fill="#000000" points="197,13,203,13,200,19.1328" style="stroke: #000000; stroke-width: 1.0;"/><text fill="#000000" font-family="sans-serif" font-size="12" lengthAdjust="spacingAndGlyphs" textLength="26" x="7" y="38.7344">Anta</text><line style="stroke: #AAAAAA; stroke-width: 1.0; stroke-dasharray: 1.0,2.0;" x1="62" x2="207" y1="34.6992" y2="34.6992"/><line style="stroke: #000000; stroke-width: 1.0;" x1="6" x2="61" y1="6" y2="6"/><line style="stroke: #000000; stroke-width: 1.0;" x1="61" x2="207" y1="6" y2="6"/><line style="stroke: #000000; stroke-width: 1.0;" x1="6" x2="61" y1="42.2656" y2="42.2656"/><line style="stroke: #000000; stroke-width: 1.0;" x1="61" x2="207" y1="42.2656" y2="42.2656"/><line style="stroke: #000000; stroke-width: 1.0;" x1="6" x2="6" y1="6" y2="26.1328"/><line style="stroke: #000000; stroke-width: 1.0;" x1="207" x2="207" y1="26.1328" y2="42.2656"/><line style="stroke: #000000; stroke-width: 1.0;" x1="207" x2="207" y1="6" y2="26.1328"/><line style="stroke: #000000; stroke-width: 1.0;" x1="6" x2="6" y1="26.1328" y2="42.2656"/><text fill="#000000" font-family="sans-serif" font-size="12" lengthAdjust="spacingAndGlyphs" textLength="53" x="210" y="18.6016">Tipologia</text><rect fill="#EEEEEE" height="17.1328" style="stroke: #000000; stroke-width: 1.0;" width="143" x="265" y="7"/><text fill="#000000" font-family="sans-serif" font-size="12" lengthAdjust="spacingAndGlyphs" textLength="95" x="267" y="20.6016">Tipologia 2 Ante</text><line style="stroke: #000000; stroke-width: 1.0;" x1="397" x2="397" y1="7" y2="24.1328"/><polygon fill="#000000" points="400,13,406,13,403,19.1328" style="stroke: #000000; stroke-width: 1.0;"/><text fill="#000000" font-family="sans-serif" font-size="12" lengthAdjust="spacingAndGlyphs" textLength="38" x="210" y="38.7344">Anta 1</text><line style="stroke: #AAAAAA; stroke-width: 1.0; stroke-dasharray: 1.0,2.0;" x1="265" x2="410" y1="34.6992" y2="34.6992"/><text fill="#000000" font-family="sans-serif" font-size="12" lengthAdjust="spacingAndGlyphs" textLength="38" x="210" y="54.8672">Anta 2</text><line style="stroke: #AAAAAA; stroke-width: 1.0; stroke-dasharray: 1.0,2.0;" x1="265" x2="410" y1="50.832" y2="50.832"/><line style="stroke: #000000; stroke-width: 1.0;" x1="209" x2="264" y1="6" y2="6"/><line style="stroke: #000000; stroke-width: 1.0;" x1="264" x2="410" y1="6" y2="6"/><line style="stroke: #000000; stroke-width: 1.0;" x1="209" x2="264" y1="58.3984" y2="58.3984"/><line style="stroke: #000000; stroke-width: 1.0;" x1="264" x2="410" y1="58.3984" y2="58.3984"/><line style="stroke: #000000; stroke-width: 1.0;" x1="209" x2="209" y1="6" y2="26.1328"/><line style="stroke: #000000; stroke-width: 1.0;" x1="410" x2="410" y1="42.2656" y2="58.3984"/><line style="stroke: #000000; stroke-width: 1.0;" x1="410" x2="410" y1="26.1328" y2="42.2656"/><line style="stroke: #000000; stroke-width: 1.0;" x1="410" x2="410" y1="6" y2="26.1328"/><line style="stroke: #000000; stroke-width: 1.0;" x1="209" x2="209" y1="42.2656" y2="58.3984"/><line style="stroke: #000000; stroke-width: 1.0;" x1="209" x2="209" y1="26.1328" y2="42.2656"/></g></svg>