<?xml version="1.0" encoding="utf-8"?>
<!-- Generator: Adobe Illustrator 16.0.0, SVG Export Plug-In . SVG Version: 6.00 Build 0)  -->
<!DOCTYPE svg PUBLIC "-//W3C//DTD SVG 1.1//EN" "http://www.w3.org/Graphics/SVG/1.1/DTD/svg11.dtd">
<svg version="1.1" id="Livello_1" xmlns="http://www.w3.org/2000/svg" xmlns:xlink="http://www.w3.org/1999/xlink" x="0px" y="0px"
	 width="469.461px" height="77.754px" viewBox="0 0 469.461 77.754" enable-background="new 0 0 469.461 77.754"
	 xml:space="preserve">
<g>
	<g>
		<path fill="#FFFFFF" d="M1.003,27.064c-0.551-0.551-1.002-0.364-1.002,0.416v10.655c0,0.78,0.451,1.869,1.002,2.419l35.853,35.854
			c0.551,0.551,1.64,1.002,2.419,1.002l10.655-0.001c0.78,0,0.966-0.451,0.416-1.002L1.003,27.064z"/>
	</g>
	<g>
		<path fill="#FFFFFF" d="M46.193,0.416c-0.78,0-1.869,0.451-2.419,1.002L18.554,26.639c-0.551,0.551-0.551,1.454,0,2.004
			l15.627,15.626c0.551,0.551,1.454,0.551,2.005,0l4.74-4.74c0.551-0.551,0.551-1.453,0-2.004l-8.883-8.883
			c-0.551-0.551-0.551-1.453,0-2.004l25.218-25.22c0.551-0.551,0.364-1.002-0.416-1.002H46.193z"/>
	</g>
</g>
<path fill="#FFFFFF" d="M79.391,77.409c0.78,0,0.966-0.451,0.416-1.003L59.241,55.839c-0.551-0.551-0.551-1.453,0-2.004
	l25.219-25.22c0.551-0.551,0.551-1.454,0-2.005l-7.562-7.562c-0.551-0.551-1.64-1.002-2.419-1.002H63.823
	c-0.78,0-0.966,0.451-0.416,1.002l7.562,7.562c0.551,0.551,0.551,1.454,0,2.005l-25.219,25.22c-0.551,0.551-0.551,1.453,0,2.004
	l20.567,20.567c0.551,0.551,1.64,1.002,2.419,1.002H79.391z"/>
<g>
	<path fill="#FFFFFF" d="M109.435,19.376c0-0.7,0.56-1.33,1.33-1.33h28.003c0.771,0,1.33,0.63,1.33,1.33v3.92
		c0,0.7-0.56,1.33-1.33,1.33h-22.122v16.172h18.692c0.699,0,1.33,0.63,1.33,1.33v3.851c0,0.7-0.631,1.33-1.33,1.33h-18.692v18.412
		c0,0.7-0.63,1.33-1.33,1.33h-4.551c-0.771,0-1.33-0.63-1.33-1.33V19.376z"/>
	<path fill="#FFFFFF" d="M152.346,56.411c-1.4,3.22-2.871,6.37-4.271,9.591c-0.209,0.489-0.77,1.05-1.609,1.05h-4.411
		c-1.05,0-1.61-0.91-1.19-1.82l21.492-47.115c0.211-0.42,0.841-0.77,1.191-0.77h0.699c0.35,0,0.98,0.35,1.19,0.77l21.353,47.115
		c0.42,0.91-0.141,1.82-1.19,1.82h-4.411c-0.84,0-1.33-0.42-1.609-1.05l-4.341-9.591l-2.66-6.021l-8.61-19.182h-0.351l-8.541,19.182
		L152.346,56.411z"/>
	<path fill="#FFFFFF" d="M184.264,19.867c-0.42-0.91,0.14-1.82,1.189-1.82h4.971c0.561,0,1.051,0.42,1.19,0.77l15.401,34.654h0.42
		l15.402-34.654c0.14-0.35,0.56-0.77,1.189-0.77h4.971c1.051,0,1.61,0.91,1.19,1.82l-21.493,47.114
		c-0.209,0.42-0.629,0.771-1.189,0.771h-0.7c-0.489,0-0.979-0.351-1.19-0.771L184.264,19.867z"/>
	<path fill="#FFFFFF" d="M258.467,17.346c14.001,0,25.202,11.271,25.202,25.272c0,14.002-11.201,25.133-25.202,25.133
		s-25.133-11.131-25.133-25.133C233.334,28.618,244.466,17.346,258.467,17.346z M258.467,60.75c10.011,0,18.202-8.121,18.202-18.132
		c0-9.941-8.191-18.271-18.202-18.271c-9.94,0-18.132,8.33-18.132,18.271C240.335,52.629,248.526,60.75,258.467,60.75z"/>
	<path fill="#FFFFFF" d="M293.674,19.376c0-0.7,0.56-1.33,1.33-1.33h4.62c0.701,0,1.33,0.63,1.33,1.33v41.164h18.973
		c0.77,0,1.33,0.63,1.33,1.33v3.851c0,0.7-0.561,1.33-1.33,1.33h-24.923c-0.771,0-1.33-0.63-1.33-1.33V19.376z"/>
	<path fill="#FFFFFF" d="M349.677,17.346c14.001,0,25.202,11.271,25.202,25.272c0,14.002-11.201,25.133-25.202,25.133
		c-14.002,0-25.133-11.131-25.133-25.133C324.544,28.618,335.675,17.346,349.677,17.346z M349.677,60.75
		c10.011,0,18.201-8.121,18.201-18.132c0-9.941-8.19-18.271-18.201-18.271c-9.941,0-18.133,8.33-18.133,18.271
		C331.544,52.629,339.735,60.75,349.677,60.75z"/>
	<path fill="#FFFFFF" d="M381.733,59.981c0.63-0.91,1.189-1.961,1.82-2.871c0.63-0.91,1.609-1.189,2.38-0.56
		c0.42,0.35,5.811,4.83,11.201,4.83c4.831,0,7.911-2.94,7.911-6.511c0-4.2-3.641-6.86-10.571-9.73
		c-7.141-3.011-12.741-6.721-12.741-14.842c0-5.461,4.2-12.951,15.332-12.951c7,0,12.25,3.641,12.951,4.13
		c0.56,0.351,1.119,1.331,0.42,2.381c-0.561,0.84-1.19,1.82-1.75,2.66c-0.561,0.91-1.471,1.33-2.451,0.7
		c-0.49-0.28-5.391-3.501-9.451-3.501c-5.88,0-7.91,3.711-7.91,6.301c0,3.991,3.08,6.441,8.891,8.821
		c8.121,3.29,15.052,7.141,15.052,15.682c0,7.28-6.511,13.231-15.612,13.231c-8.54,0-13.931-4.48-15.051-5.53
		C381.522,61.661,381.033,61.17,381.733,59.981z"/>
	<path fill="#FFFFFF" d="M444.034,17.346c14.002,0,25.203,11.271,25.203,25.272c0,14.002-11.201,25.133-25.203,25.133
		c-14.001,0-25.133-11.131-25.133-25.133C418.901,28.618,430.033,17.346,444.034,17.346z M444.034,60.75
		c10.012,0,18.202-8.121,18.202-18.132c0-9.941-8.19-18.271-18.202-18.271c-9.94,0-18.131,8.33-18.131,18.271
		C425.903,52.629,434.094,60.75,444.034,60.75z"/>
</g>
<g>
	<g>
		<g>
			<path fill="#FFFFFF" d="M453.789,34.547c0.11,0,0.2-0.09,0.2-0.2v-1.52c0-0.11-0.09-0.2-0.2-0.2h-6.641c-0.11,0-0.29,0-0.4,0
				h-1.52c-0.11,0-0.2,0.09-0.2,0.2v1.52c0,0.11,0,0.29,0,0.4v1.2c0,0.11,0,0.29,0,0.4v1.52c0,0.11,0,0.29,0,0.4v1.2
				c0,0.11,0,0.29,0,0.4v1.52c0,0.11,0.09,0.2,0.2,0.2h1.52c0.11,0,0.29,0,0.4,0h6.641c0.11,0,0.2-0.09,0.2-0.2v-1.52
				c0-0.11-0.09-0.2-0.2-0.2h-6.641c-0.11,0-0.2-0.09-0.2-0.2v-1.2c0-0.11,0.09-0.2,0.2-0.2l4.721,0.001c0.11,0,0.2-0.09,0.2-0.2
				v-1.521c0-0.11-0.09-0.2-0.2-0.2h-4.721c-0.11,0-0.2-0.09-0.2-0.2v-1.2c0-0.11,0.09-0.2,0.2-0.2H453.789z"/>
		</g>
		<g>
			<path fill="#FFFFFF" d="M437.867,32.627c-0.11,0-0.29,0-0.4,0h-3.119c-0.11,0-0.2,0.09-0.2,0.2v1.52c0,0.11,0.09,0.2,0.2,0.2
				h3.119c0.11,0,0.2,0.09,0.2,0.2v6.641c0,0.11,0.09,0.2,0.2,0.2h1.52c0.11,0,0.2-0.09,0.2-0.2v-6.641c0-0.11,0.09-0.2,0.2-0.2
				h3.121c0.11,0,0.2-0.09,0.2-0.2v-1.52c0-0.11-0.09-0.2-0.2-0.2h-3.121c-0.11,0-0.29,0-0.4,0H437.867z"/>
		</g>
		<g>
			<path fill="#FFFFFF" d="M450.67,43.508c-0.11,0-0.29,0-0.4,0h-1.52c-0.11,0-0.29,0-0.4,0h-1.201c-0.11,0-0.29,0-0.4,0h-1.52
				c-0.11,0-0.2,0.09-0.2,0.2v1.52c0,0.11,0,0.29,0,0.4v6.642c0,0.11,0.09,0.2,0.2,0.2h1.52c0.11,0,0.2-0.09,0.2-0.2v-6.642
				c0-0.11,0.09-0.2,0.2-0.2h1.201c0.11,0,0.2,0.09,0.2,0.2v6.642c0,0.11,0.09,0.2,0.2,0.2h1.52c0.11,0,0.2-0.09,0.2-0.2v-6.642
				c0-0.11,0.09-0.2,0.2-0.2h1.199c0.11,0,0.2,0.09,0.2,0.2v6.642c0,0.11,0.09,0.2,0.2,0.2h1.52c0.11,0,0.2-0.09,0.2-0.2v-6.642
				c0-0.11,0-0.29,0-0.4v-1.519c0-0.11-0.09-0.2-0.2-0.2h-1.52c-0.11,0-0.29,0-0.4,0L450.67,43.508z"/>
		</g>
		<g>
			<path fill="#FFFFFF" d="M436.267,43.508c-0.11,0-0.29,0-0.4,0h-1.52c-0.11,0-0.2,0.09-0.2,0.2v1.521c0,0.11,0,0.29,0,0.4v3.12
				c0,0.11,0,0.29,0,0.4v1.52c0,0.11,0,0.29,0,0.4v1.2c0,0.11,0.09,0.2,0.2,0.2h1.52c0.11,0,0.2-0.09,0.2-0.2v-2.448
				c0-0.11,0.09-0.2,0.2-0.2h4.721c0.11,0,0.2,0.09,0.2,0.2v2.448c0,0.11,0.09,0.2,0.2,0.2h1.52c0.11,0,0.2-0.09,0.2-0.2v-1.2
				c0-0.11,0-0.29,0-0.4v-1.52c0-0.11,0-0.29,0-0.4v-3.12c0-0.11,0-0.29,0-0.4v-1.521c0-0.11-0.09-0.2-0.2-0.2h-1.52
				c-0.11,0-0.29,0-0.4,0H436.267z M441.188,47.5c0,0.11-0.09,0.2-0.2,0.2h-4.721c-0.11,0-0.2-0.09-0.2-0.2v-1.871
				c0-0.11,0.09-0.2,0.2-0.2h4.721c0.11,0,0.2,0.09,0.2,0.2V47.5z"/>
		</g>
	</g>
</g>
</svg>
