<svg id="Layer_1" data-name="Layer 1" xmlns="http://www.w3.org/2000/svg" xmlns:xlink="http://www.w3.org/1999/xlink" viewBox="0 0 492 176"><defs><style>.cls-1{fill:url(#linear-gradient);}.cls-2{fill:#22a6b3;}</style><linearGradient id="linear-gradient" x1="62.44" y1="175.61" x2="148.47" y2="26.61" gradientUnits="userSpaceOnUse"><stop offset="0" stop-color="#7ed6df"/><stop offset="0.09" stop-color="#76d2db"/><stop offset="0.24" stop-color="#5ec6d0"/><stop offset="0.42" stop-color="#39b2be"/><stop offset="0.52" stop-color="#22a6b3"/><stop offset="1" stop-color="#4834d4"/></linearGradient></defs><title>fflamingo-client</title><path class="cls-1" d="M159.73,157.6a30.41,30.41,0,0,1-10.52-1.67,24.17,24.17,0,0,1-7.82-4.56,19,19,0,0,1-6.61-14.61v-76a42.2,42.2,0,0,0-.65-7.26,20.74,20.74,0,0,0-2.42-6.8,15.24,15.24,0,0,0-4.84-5.12,16.63,16.63,0,0,0-15.64-.19,15.28,15.28,0,0,0-5,4.94,21.14,21.14,0,0,0-2.79,7,38.1,38.1,0,0,0-.84,8v8.56h16.2V89.09h-16.2v67H77.62v-67h-24v67H28.66v-67H16V69.91H28.66V63.39A49.19,49.19,0,0,1,31,47.94a35.76,35.76,0,0,1,6.7-12.19,30,30,0,0,1,10.52-7.91,33.43,33.43,0,0,1,14-2.79,49,49,0,0,1,12.29,1.49A85.37,85.37,0,0,1,86,30.44a32.61,32.61,0,0,1,13.5-9,54.19,54.19,0,0,1,18.9-3.07q21.22,0,31.28,10.05t10.05,26.44v69.44a16.4,16.4,0,0,0,.46,3.81,10.11,10.11,0,0,0,1.58,3.54,9.22,9.22,0,0,0,2.79,2.61,7.69,7.69,0,0,0,4.1,1,18,18,0,0,0,3.54-.37c1.24-.24,2.39-.52,3.44-.83s2-.59,2.7-.84a7.91,7.91,0,0,1,1.3-.37L183,152.94a11.7,11.7,0,0,1-2.23.93,56.07,56.07,0,0,1-5.4,1.58q-3.35.84-7.45,1.49A52,52,0,0,1,159.73,157.6ZM77.62,69.91V60.42c0-.62,0-1.49.09-2.61s.12-2.3.19-3.54a24.69,24.69,0,0,1,.37-3.35,8.76,8.76,0,0,1,.65-2.23,18.3,18.3,0,0,0-5.77-2,36.75,36.75,0,0,0-5.59-.47Q60.31,46.27,57,51a19.34,19.34,0,0,0-3.35,11.45v7.45Z"/><path class="cls-2" d="M199.3,95a31.61,31.61,0,0,1,2.12-11.63,27.94,27.94,0,0,1,14.75-15.58,26.39,26.39,0,0,1,11-2.28,25.18,25.18,0,0,1,13.08,3.4,21.48,21.48,0,0,1,8.63,9.52l-2.23.78a21.23,21.23,0,0,0-8.18-8.4,22.81,22.81,0,0,0-11.63-3.06,23.28,23.28,0,0,0-9.91,2.12,25.74,25.74,0,0,0-8,5.79,26.6,26.6,0,0,0-5.4,8.68,30.19,30.19,0,0,0,.06,21.48,28.62,28.62,0,0,0,5.51,9,26.68,26.68,0,0,0,8.07,6.07,22,22,0,0,0,9.8,2.23,23.71,23.71,0,0,0,6.73-1,27.76,27.76,0,0,0,6.23-2.67,20.27,20.27,0,0,0,4.84-3.9,11.69,11.69,0,0,0,2.67-4.56l2.23.67a16.41,16.41,0,0,1-3.17,5.4,21.87,21.87,0,0,1-5.18,4.34,27.34,27.34,0,0,1-6.62,2.89,26.3,26.3,0,0,1-7.4,1.06,25.2,25.2,0,0,1-10.8-2.39,28.12,28.12,0,0,1-8.91-6.51,31.5,31.5,0,0,1-6-9.63A31,31,0,0,1,199.3,95Z"/><path class="cls-2" d="M264,42.91h2.23V115.6a6.7,6.7,0,0,0,2,5.12,7.46,7.46,0,0,0,5.34,1.89,18.87,18.87,0,0,0,3-.28,23.29,23.29,0,0,0,3.17-.72l.78,1.78a23.08,23.08,0,0,1-3.84.95,23.63,23.63,0,0,1-3.84.39,8.48,8.48,0,0,1-6.34-2.5A9.06,9.06,0,0,1,264,115.6Z"/><path class="cls-2" d="M288.47,51.49V42.91h2.23v8.57Zm0,72.69V66.4h2.23v57.77Z"/><path class="cls-2" d="M333,125.29a24.84,24.84,0,0,1-10.74-2.39,27.91,27.91,0,0,1-8.85-6.57,32.24,32.24,0,0,1-6-9.68,32.11,32.11,0,0,1-.11-23.21,29.49,29.49,0,0,1,5.84-9.35,27.41,27.41,0,0,1,8.68-6.29,25.11,25.11,0,0,1,10.63-2.28,25.59,25.59,0,0,1,10.85,2.34,27.81,27.81,0,0,1,8.79,6.35,31.07,31.07,0,0,1,8.18,21.15v1.22H307.39A31.33,31.33,0,0,0,310,107a29,29,0,0,0,5.62,8.4,26,26,0,0,0,8,5.62,22.63,22.63,0,0,0,9.52,2.06,24,24,0,0,0,6.51-.89,25.53,25.53,0,0,0,6-2.5,21.74,21.74,0,0,0,4.9-3.84,18,18,0,0,0,3.34-4.9l2.12.56a18.55,18.55,0,0,1-3.51,5.51,23.61,23.61,0,0,1-5.34,4.34,28.42,28.42,0,0,1-6.68,2.89A26.3,26.3,0,0,1,333,125.29Zm24.94-30.95a31.32,31.32,0,0,0-2.45-10.69,27.78,27.78,0,0,0-5.51-8.4,25.28,25.28,0,0,0-7.85-5.51,23.87,23.87,0,0,0-19.15,0,24.81,24.81,0,0,0-7.85,5.57,26.85,26.85,0,0,0-5.4,8.46,32.83,32.83,0,0,0-2.34,10.57Z"/><path class="cls-2" d="M418.37,124.18h-2.23V92q0-12.69-3.51-18.48t-11.3-5.79a23.72,23.72,0,0,0-8.29,1.5,28.11,28.11,0,0,0-7.51,4.17,28.74,28.74,0,0,0-6,6.34,26.71,26.71,0,0,0-3.78,7.9v36.51h-2.23V66.4h2.23V81.32a28,28,0,0,1,4.56-6.4,30.22,30.22,0,0,1,6.12-5,30.87,30.87,0,0,1,7.12-3.23,25.87,25.87,0,0,1,7.68-1.17q8.9,0,13,6.4T418.37,92Z"/><path class="cls-2" d="M458.45,121.5a17,17,0,0,1-3.06,1.67,28.59,28.59,0,0,1-3.28,1.06,16.54,16.54,0,0,1-4.23.5,10.77,10.77,0,0,1-7-2.45,7.92,7.92,0,0,1-3-6.46V68.63H429.5V66.4h8.35V46.25h2.23V66.4H454v2.23H440.08v47.2a5.69,5.69,0,0,0,2.45,5,9.07,9.07,0,0,0,5.34,1.73,15.59,15.59,0,0,0,3.56-.39,21.49,21.49,0,0,0,3-.89,12.94,12.94,0,0,0,2-.95,7,7,0,0,0,.83-.56Z"/></svg>