<svg id="Layer_1" data-name="Layer 1" xmlns="http://www.w3.org/2000/svg" xmlns:xlink="http://www.w3.org/1999/xlink" viewBox="0 0 531 176"><defs><style>.cls-1{fill:url(#linear-gradient);}.cls-2{fill:#be2edd;}</style><linearGradient id="linear-gradient" x1="62.44" y1="175.61" x2="148.47" y2="26.61" gradientUnits="userSpaceOnUse"><stop offset="0" stop-color="#ff7979"/><stop offset="0.08" stop-color="#f97381"/><stop offset="0.21" stop-color="#ea6199"/><stop offset="0.37" stop-color="#d245be"/><stop offset="0.49" stop-color="#be2edd"/><stop offset="1" stop-color="#4834d4"/></linearGradient></defs><title>fflamingo-server</title><path class="cls-1" d="M159.73,157.6a30.41,30.41,0,0,1-10.52-1.67,24.17,24.17,0,0,1-7.82-4.56,19,19,0,0,1-6.61-14.61v-76a42.2,42.2,0,0,0-.65-7.26,20.74,20.74,0,0,0-2.42-6.8,15.24,15.24,0,0,0-4.84-5.12,16.63,16.63,0,0,0-15.64-.19,15.28,15.28,0,0,0-5,4.94,21.14,21.14,0,0,0-2.79,7,38.1,38.1,0,0,0-.84,8v8.56h16.2V89.09h-16.2v67H77.62v-67h-24v67H28.66v-67H16V69.91H28.66V63.39A49.19,49.19,0,0,1,31,47.94a35.76,35.76,0,0,1,6.7-12.19,30,30,0,0,1,10.52-7.91,33.43,33.43,0,0,1,14-2.79,49,49,0,0,1,12.29,1.49A85.37,85.37,0,0,1,86,30.44a32.61,32.61,0,0,1,13.5-9,54.19,54.19,0,0,1,18.9-3.07q21.22,0,31.28,10.05t10.05,26.44v69.44a16.4,16.4,0,0,0,.46,3.81,10.11,10.11,0,0,0,1.58,3.54,9.22,9.22,0,0,0,2.79,2.61,7.69,7.69,0,0,0,4.1,1,18,18,0,0,0,3.54-.37c1.24-.24,2.39-.52,3.44-.83s2-.59,2.7-.84a7.91,7.91,0,0,1,1.3-.37L183,152.94a11.7,11.7,0,0,1-2.23.93,56.07,56.07,0,0,1-5.4,1.58q-3.35.84-7.45,1.49A52,52,0,0,1,159.73,157.6ZM77.62,69.91V60.42c0-.62,0-1.49.09-2.61s.12-2.3.19-3.54a24.69,24.69,0,0,1,.37-3.35,8.76,8.76,0,0,1,.65-2.23,18.3,18.3,0,0,0-5.77-2,36.75,36.75,0,0,0-5.59-.47Q60.31,46.27,57,51a19.34,19.34,0,0,0-3.35,11.45v7.45Z"/><path class="cls-2" d="M220.23,120.29q-13.47,0-22-9.35l1.67-1.45a31.39,31.39,0,0,0,9.29,6.46,27.41,27.41,0,0,0,11.08,2.12q8.57,0,13.92-3.67A11.84,11.84,0,0,0,239.49,104a9.34,9.34,0,0,0-1.34-5.18,11.4,11.4,0,0,0-3.9-3.56,26.92,26.92,0,0,0-6.35-2.56q-3.79-1.06-8.57-2.17t-8.13-2.06a21.06,21.06,0,0,1-5.73-2.39A9.72,9.72,0,0,1,202,82.5a11.82,11.82,0,0,1-1.17-5.62,15.26,15.26,0,0,1,1.67-7.4A15,15,0,0,1,207,64.41a19.07,19.07,0,0,1,6.46-3,31.18,31.18,0,0,1,7.79-.95,27.32,27.32,0,0,1,12,2.39q5,2.4,6.85,6l-2,.89a13.06,13.06,0,0,0-6.9-5.23,29.48,29.48,0,0,0-10.35-1.78,28.88,28.88,0,0,0-6.79.78A17.08,17.08,0,0,0,208.32,66a11.85,11.85,0,0,0-3.84,4.29,13.22,13.22,0,0,0-1.39,6.29,10.3,10.3,0,0,0,.95,4.73,7.75,7.75,0,0,0,3,3.06,20.78,20.78,0,0,0,5.12,2.11q3.12.89,7.35,1.89,5.12,1.23,9.29,2.34a28.22,28.22,0,0,1,7,2.78,13,13,0,0,1,4.4,4.06,11.15,11.15,0,0,1,1.56,6.18,14.88,14.88,0,0,1-1.56,6.85,15.49,15.49,0,0,1-4.34,5.23,20,20,0,0,1-6.79,3.34A31.31,31.31,0,0,1,220.23,120.29Z"/><path class="cls-2" d="M279.56,120.29a24.84,24.84,0,0,1-10.74-2.39,27.91,27.91,0,0,1-8.85-6.57,32.24,32.24,0,0,1-6-9.68,32.11,32.11,0,0,1-.11-23.21,29.48,29.48,0,0,1,5.84-9.35,27.42,27.42,0,0,1,8.68-6.29A25.11,25.11,0,0,1,279,60.51a25.59,25.59,0,0,1,10.85,2.34,27.81,27.81,0,0,1,8.79,6.35,31.07,31.07,0,0,1,8.18,21.15v1.22H254A31.33,31.33,0,0,0,256.58,102a29,29,0,0,0,5.62,8.4,26,26,0,0,0,8,5.62,22.63,22.63,0,0,0,9.52,2.06,24,24,0,0,0,6.51-.89,25.53,25.53,0,0,0,6-2.5,21.74,21.74,0,0,0,4.9-3.84,18,18,0,0,0,3.34-4.9l2.12.56A18.55,18.55,0,0,1,299,112a23.61,23.61,0,0,1-5.34,4.34,28.42,28.42,0,0,1-6.68,2.89A26.3,26.3,0,0,1,279.56,120.29ZM304.5,89.34A31.32,31.32,0,0,0,302,78.66a27.78,27.78,0,0,0-5.51-8.4,25.28,25.28,0,0,0-7.85-5.51,23.87,23.87,0,0,0-19.15,0,24.82,24.82,0,0,0-7.85,5.57,26.85,26.85,0,0,0-5.4,8.46A32.83,32.83,0,0,0,254,89.34Z"/><path class="cls-2" d="M344.79,63.63A22.84,22.84,0,0,0,330.6,69a26.22,26.22,0,0,0-8.29,13.69v36.51h-2.23V61.4h2.23V76.32a28.48,28.48,0,0,1,8.07-10.07,21.38,21.38,0,0,1,10.74-4.62q1.11-.11,2.06-.17c.63,0,1.17-.06,1.61-.06Z"/><path class="cls-2" d="M375,119.18,349.8,61.4h2.45L376,115.95,399.67,61.4h2.45L377,119.18Z"/><path class="cls-2" d="M435.85,120.29a24.84,24.84,0,0,1-10.74-2.39,27.91,27.91,0,0,1-8.85-6.57,32.24,32.24,0,0,1-6-9.68,32.11,32.11,0,0,1-.11-23.21A29.48,29.48,0,0,1,416,69.08a27.42,27.42,0,0,1,8.68-6.29,25.11,25.11,0,0,1,10.63-2.28,25.59,25.59,0,0,1,10.85,2.34,27.81,27.81,0,0,1,8.79,6.35,31.07,31.07,0,0,1,8.18,21.15v1.22H410.25A31.33,31.33,0,0,0,412.86,102a29,29,0,0,0,5.62,8.4,26,26,0,0,0,8,5.62,22.63,22.63,0,0,0,9.52,2.06,24,24,0,0,0,6.51-.89,25.53,25.53,0,0,0,6-2.5,21.74,21.74,0,0,0,4.9-3.84,18,18,0,0,0,3.34-4.9l2.12.56a18.55,18.55,0,0,1-3.51,5.51,23.61,23.61,0,0,1-5.34,4.34,28.42,28.42,0,0,1-6.68,2.89A26.3,26.3,0,0,1,435.85,120.29Zm24.94-30.95a31.32,31.32,0,0,0-2.45-10.69,27.78,27.78,0,0,0-5.51-8.4A25.28,25.28,0,0,0,445,64.74a23.87,23.87,0,0,0-19.15,0A24.82,24.82,0,0,0,418,70.31a26.85,26.85,0,0,0-5.4,8.46,32.83,32.83,0,0,0-2.34,10.58Z"/><path class="cls-2" d="M501.08,63.63A22.84,22.84,0,0,0,486.89,69a26.22,26.22,0,0,0-8.29,13.69v36.51h-2.23V61.4h2.23V76.32a28.48,28.48,0,0,1,8.07-10.07,21.38,21.38,0,0,1,10.74-4.62q1.11-.11,2.06-.17c.63,0,1.17-.06,1.61-.06Z"/></svg>