<svg id="Layer_1" data-name="Layer 1" xmlns="http://www.w3.org/2000/svg" viewBox="0 0 623 133"><defs><style>.cls-1{fill:#fff;}</style></defs><title>fflamingo-long-inverted</title><path class="cls-1" d="M104.42,102.57a21.67,21.67,0,0,1-7.5-1.19,17.23,17.23,0,0,1-5.57-3.25,13.56,13.56,0,0,1-4.71-10.41V33.59a30.07,30.07,0,0,0-.46-5.17,14.78,14.78,0,0,0-1.72-4.84A10.86,10.86,0,0,0,81,19.93a10.25,10.25,0,0,0-5.77-1.46,10.21,10.21,0,0,0-5.37,1.33,10.89,10.89,0,0,0-3.58,3.52,15.07,15.07,0,0,0-2,5,27.15,27.15,0,0,0-.6,5.71v6.1H75.23V53.76H63.69v47.76H45.91V53.76H28.8v47.76H11V53.76H2V40.09h9V35.44a35.05,35.05,0,0,1,1.66-11,25.48,25.48,0,0,1,4.78-8.69A21.39,21.39,0,0,1,25,10.11a23.82,23.82,0,0,1,10-2,35,35,0,0,1,8.76,1.06A60.83,60.83,0,0,1,51.88,12,23.24,23.24,0,0,1,61.5,5.53,38.61,38.61,0,0,1,75,3.34q15.12,0,22.29,7.16t7.16,18.84V78.83a11.69,11.69,0,0,0,.33,2.72,7.21,7.21,0,0,0,1.13,2.52,6.57,6.57,0,0,0,2,1.86,5.48,5.48,0,0,0,2.92.73,12.79,12.79,0,0,0,2.52-.27c.88-.17,1.7-.37,2.45-.59s1.39-.42,1.92-.6a5.63,5.63,0,0,1,.93-.26L121,99.26a8.34,8.34,0,0,1-1.59.66,40,40,0,0,1-3.85,1.13q-2.39.6-5.31,1.06A37,37,0,0,1,104.42,102.57ZM45.91,40.09V33.32c0-.44,0-1.06.07-1.86s.09-1.64.13-2.52a17.6,17.6,0,0,1,.27-2.39A6.24,6.24,0,0,1,46.84,25a13,13,0,0,0-4.11-1.4,26.18,26.18,0,0,0-4-.33q-5.17,0-7.56,3.38a13.78,13.78,0,0,0-2.39,8.16v5.31Z"/><path class="cls-1" d="M225.1,102.73a8,8,0,0,1-6.51-2.73,9.66,9.66,0,0,1-2.28-6.4V33.94a12.49,12.49,0,0,0-.78-4.34,10.4,10.4,0,0,0-2.45-3.79,12.71,12.71,0,0,0-4.29-2.73A16.78,16.78,0,0,0,202.5,22a12.35,12.35,0,0,0-6.79,1.78,13.94,13.94,0,0,0-4.51,4.68,22.57,22.57,0,0,0-2.56,6.46,31.13,31.13,0,0,0-.83,7.12v9.13h13.92v2.23H187.81v48.76h-2.23V53.42H164.21v48.76H162V53.42h-8.35V51.19H162v-6.9A28,28,0,0,1,163,36.5a18.82,18.82,0,0,1,3.17-6.4,14.93,14.93,0,0,1,5.29-4.29,16.61,16.61,0,0,1,7.4-1.56,18,18,0,0,1,6.62.95A17.65,17.65,0,0,1,189,27a15,15,0,0,1,5.29-5.29,15.81,15.81,0,0,1,8.18-1.95,19.5,19.5,0,0,1,6.79,1.11,15.21,15.21,0,0,1,5.06,3,12.46,12.46,0,0,1,3.12,4.45,14.17,14.17,0,0,1,1.06,5.45V93.6a7.73,7.73,0,0,0,1.73,4.73,5.83,5.83,0,0,0,5,2.28,16.14,16.14,0,0,0,2.28-.17l2.17-.33q1-.17,2.34-.5l1,2.12q-1.45.33-2.56.5t-2.5.33A23.83,23.83,0,0,1,225.1,102.73ZM185.58,51.19V42.06a41.82,41.82,0,0,1,.56-6.9A25.56,25.56,0,0,1,187.92,29,9.81,9.81,0,0,0,183.63,27a23,23,0,0,0-4.73-.5,13.33,13.33,0,0,0-6.79,1.61,13.53,13.53,0,0,0-4.51,4.17A18.65,18.65,0,0,0,165,38a24.64,24.64,0,0,0-.83,6.29v6.9Z"/><path class="cls-1" d="M254.71,103.29a19.47,19.47,0,0,1-7.35-1.39,18.53,18.53,0,0,1-6-3.79,17.68,17.68,0,0,1-4-5.62,16.67,16.67,0,0,1-1.45-6.9,13.17,13.17,0,0,1,1.72-6.68,15.83,15.83,0,0,1,4.9-5.18,25.35,25.35,0,0,1,7.57-3.4,35.84,35.84,0,0,1,9.63-1.22,62.86,62.86,0,0,1,10.13.83,48,48,0,0,1,9.24,2.39V65.78a24.11,24.11,0,0,0-1.34-8.18A17.66,17.66,0,0,0,274,51.25a17.43,17.43,0,0,0-6-4.06,20.11,20.11,0,0,0-7.74-1.45,25.21,25.21,0,0,0-9,1.84,44.72,44.72,0,0,0-9.68,5.29l-1.34-1.78q11.13-7.57,20-7.57A23.65,23.65,0,0,1,269,45.07a18.24,18.24,0,0,1,6.68,4.45,20.16,20.16,0,0,1,4.23,7,26.82,26.82,0,0,1,1.5,9.24V97.72q0,2.23,1.78,2.23v2.23a3.35,3.35,0,0,1-1.56-.22,3.55,3.55,0,0,1-1.78-1.61,5.18,5.18,0,0,1-.67-2.62V92.38a26.17,26.17,0,0,1-10.46,8.07A34.46,34.46,0,0,1,254.71,103.29Zm0-2.23a32.8,32.8,0,0,0,13.64-2.78,20.54,20.54,0,0,0,9.18-7.46,7.87,7.87,0,0,0,1.67-4.56V74.79a53.18,53.18,0,0,0-19.37-3.45,36,36,0,0,0-8.85,1,21.82,21.82,0,0,0-6.79,2.89,14.13,14.13,0,0,0-4.4,4.51,11.2,11.2,0,0,0-1.56,5.84,14.58,14.58,0,0,0,1.28,6.07,15.58,15.58,0,0,0,3.51,5,15.83,15.83,0,0,0,5.23,3.28A17.65,17.65,0,0,0,254.71,101.06Z"/><path class="cls-1" d="M382.5,102.18h-2.23V70q0-12.46-3.73-18.37t-11.74-5.9a20,20,0,0,0-7.74,1.5,22.64,22.64,0,0,0-6.57,4.17,27,27,0,0,0-5.12,6.34,30.54,30.54,0,0,0-3.28,8v36.4h-2.23V70q0-12.58-3.67-18.42T324.5,45.74a20.36,20.36,0,0,0-7.62,1.45,22.34,22.34,0,0,0-6.57,4.06,27.11,27.11,0,0,0-5.18,6.29,31.87,31.87,0,0,0-3.45,8.13v36.51h-2.23V44.4h2.23V59.32a30.71,30.71,0,0,1,9.63-11.69,21.67,21.67,0,0,1,12.75-4.12,16.49,16.49,0,0,1,12,4.56q4.68,4.56,5.57,12.24,8.68-16.81,23.15-16.81,9,0,13.36,6.51t4.34,20Z"/><path class="cls-1" d="M400.31,29.49V20.91h2.23v8.57Zm0,72.69V44.4h2.23v57.77Z"/><path class="cls-1" d="M465.87,102.18h-2.23V70q0-12.69-3.51-18.48t-11.3-5.79a23.72,23.72,0,0,0-8.29,1.5A28.1,28.1,0,0,0,433,51.42a28.74,28.74,0,0,0-6,6.34,26.71,26.71,0,0,0-3.78,7.9v36.51H421V44.4h2.23V59.32a28,28,0,0,1,4.56-6.4,30.23,30.23,0,0,1,6.12-5,30.89,30.89,0,0,1,7.12-3.23,25.87,25.87,0,0,1,7.68-1.17q8.9,0,13,6.4T465.87,70Z"/><path class="cls-1" d="M507.5,103.29a24.55,24.55,0,0,1-11.13-2.56,28.86,28.86,0,0,1-8.85-6.79,31.41,31.41,0,0,1-5.79-9.57,30.07,30.07,0,0,1-2.06-10.91,32.72,32.72,0,0,1,1.95-11.19,30.57,30.57,0,0,1,5.51-9.57A27.21,27.21,0,0,1,495.65,46a23.7,23.7,0,0,1,10.85-2.5,23.33,23.33,0,0,1,7.29,1.11,26.42,26.42,0,0,1,6.34,3.06,30.23,30.23,0,0,1,5.4,4.56,52.31,52.31,0,0,1,4.56,5.62V44.4h2.23v60.22a21.91,21.91,0,0,1-2.12,9.91,20.27,20.27,0,0,1-5.68,7,24,24,0,0,1-8.18,4.12,34.13,34.13,0,0,1-9.52,1.33q-10.24,0-16-3.78a26.1,26.1,0,0,1-9-10l2.12-.67a20.92,20.92,0,0,0,9.74,9.41,32.2,32.2,0,0,0,22.21,1.56,21.66,21.66,0,0,0,7.4-3.84,18.47,18.47,0,0,0,5-6.29,19.56,19.56,0,0,0,1.84-8.74V90.15a30,30,0,0,1-4.4,5.29,31.15,31.15,0,0,1-5.46,4.17,26.07,26.07,0,0,1-6.18,2.73A23.28,23.28,0,0,1,507.5,103.29Zm0-2.23a21.16,21.16,0,0,0,8.07-1.61,27.28,27.28,0,0,0,7.07-4.17,25.68,25.68,0,0,0,5.18-5.68,13,13,0,0,0,2.28-6.23V62.55a23,23,0,0,0-3.84-6.73,29.13,29.13,0,0,0-5.62-5.29A26.81,26.81,0,0,0,513.85,47a22.23,22.23,0,0,0-7.35-1.28A21.4,21.4,0,0,0,496,48.24a24.93,24.93,0,0,0-7.68,6.46,29.43,29.43,0,0,0-4.79,8.91,30.69,30.69,0,0,0-1.67,9.85,27.49,27.49,0,0,0,2,10.41,29.7,29.7,0,0,0,5.45,8.79,26.33,26.33,0,0,0,8.13,6.12A22.52,22.52,0,0,0,507.5,101.06Z"/><path class="cls-1" d="M574.29,103.29a24.48,24.48,0,0,1-10.69-2.39,28.27,28.27,0,0,1-8.74-6.46,31.42,31.42,0,0,1-5.9-32.5,31,31,0,0,1,6-9.52,28.57,28.57,0,0,1,8.79-6.51,24.56,24.56,0,0,1,21.15,0,27.94,27.94,0,0,1,8.74,6.51,32.53,32.53,0,0,1,6,9.52,29.94,29.94,0,0,1,2.23,11.52,31.26,31.26,0,0,1-8.07,21A28.28,28.28,0,0,1,585,100.9,24.48,24.48,0,0,1,574.29,103.29ZM549,73.68a28.2,28.2,0,0,0,2,10.58,28.6,28.6,0,0,0,5.4,8.74,25.4,25.4,0,0,0,8,5.9,22.51,22.51,0,0,0,9.8,2.17,22.15,22.15,0,0,0,9.74-2.23,26.92,26.92,0,0,0,8.13-6,29,29,0,0,0,5.51-30.06A28.83,28.83,0,0,0,592.11,54,26.29,26.29,0,0,0,584,48a22.42,22.42,0,0,0-19.48,0A25.82,25.82,0,0,0,556.48,54,29.34,29.34,0,0,0,551,62.94,28.93,28.93,0,0,0,549,73.68Z"/></svg>