<svg id="Layer_1" data-name="Layer 1" xmlns="http://www.w3.org/2000/svg" xmlns:xlink="http://www.w3.org/1999/xlink" viewBox="0 0 220 220"><defs><style>.cls-1{fill:url(#linear-gradient);}</style><linearGradient id="linear-gradient" x1="73.44" y1="197.61" x2="159.47" y2="48.61" gradientUnits="userSpaceOnUse"><stop offset="0" stop-color="#ff7979"/><stop offset="0.08" stop-color="#f97381"/><stop offset="0.21" stop-color="#ea6199"/><stop offset="0.37" stop-color="#d245be"/><stop offset="0.49" stop-color="#be2edd"/><stop offset="1" stop-color="#4834d4"/></linearGradient></defs><title>logo-fflamingo-squared</title><path class="cls-1" d="M170.73,179.6a30.41,30.41,0,0,1-10.52-1.67,24.17,24.17,0,0,1-7.82-4.56,19,19,0,0,1-6.61-14.61v-76a42.2,42.2,0,0,0-.65-7.26,20.74,20.74,0,0,0-2.42-6.8,15.24,15.24,0,0,0-4.84-5.12,16.63,16.63,0,0,0-15.64-.19,15.28,15.28,0,0,0-5,4.94,21.14,21.14,0,0,0-2.79,7,38.1,38.1,0,0,0-.84,8v8.56h16.2v19.18h-16.2v67H88.62v-67h-24v67H39.66v-67H27V91.91H39.66V85.39A49.19,49.19,0,0,1,42,69.94a35.76,35.76,0,0,1,6.7-12.19,30,30,0,0,1,10.52-7.91,33.43,33.43,0,0,1,14-2.79,49,49,0,0,1,12.29,1.49A85.37,85.37,0,0,1,97,52.44a32.61,32.61,0,0,1,13.5-9,54.19,54.19,0,0,1,18.9-3.07q21.22,0,31.28,10.05t10.05,26.44v69.44a16.4,16.4,0,0,0,.46,3.81,10.11,10.11,0,0,0,1.58,3.54,9.22,9.22,0,0,0,2.79,2.61,7.69,7.69,0,0,0,4.1,1,18,18,0,0,0,3.54-.37c1.24-.24,2.39-.52,3.44-.83s2-.59,2.7-.84a7.91,7.91,0,0,1,1.3-.37L194,174.94a11.7,11.7,0,0,1-2.23.93,56.07,56.07,0,0,1-5.4,1.58q-3.35.84-7.45,1.49A52,52,0,0,1,170.73,179.6ZM88.62,91.91V82.42c0-.62,0-1.49.09-2.61s.12-2.3.19-3.54a24.69,24.69,0,0,1,.37-3.35,8.76,8.76,0,0,1,.65-2.23,18.3,18.3,0,0,0-5.77-2,36.75,36.75,0,0,0-5.59-.47Q71.31,68.27,68,73a19.34,19.34,0,0,0-3.35,11.45v7.45Z"/></svg>