<?xml version="1.0" encoding="UTF-8" standalone="no"?>
<!DOCTYPE svg PUBLIC "-//W3C//DTD SVG 1.1//EN"
 "http://www.w3.org/Graphics/SVG/1.1/DTD/svg11.dtd">
<!-- Generated by graphviz version 2.40.1 (20161225.0304)
 -->
<!-- Title: g Pages: 1 -->
<svg width="319pt" height="188pt"
 viewBox="0.00 0.00 319.50 188.00" xmlns="http://www.w3.org/2000/svg" xmlns:xlink="http://www.w3.org/1999/xlink">
<g id="graph0" class="graph" transform="scale(1 1) rotate(0) translate(4 184)">
<title>g</title>
<polygon fill="#ffffff" stroke="transparent" points="-4,4 -4,-184 315.4951,-184 315.4951,4 -4,4"/>
<!-- root -->
<g id="node1" class="node">
<title>root</title>
<ellipse fill="none" stroke="#000000" cx="189" cy="-162" rx="27" ry="18"/>
<text text-anchor="middle" x="189" y="-158.7" font-family="Helvetica,sans-Serif" font-size="11.00" fill="#000000">root</text>
</g>
<!-- prodotto -->
<g id="node2" class="node">
<title>prodotto</title>
<ellipse fill="none" stroke="#000000" cx="108" cy="-90" rx="33.3595" ry="18"/>
<text text-anchor="middle" x="108" y="-86.7" font-family="Helvetica,sans-Serif" font-size="11.00" fill="#000000">prodotto</text>
</g>
<!-- root&#45;&gt;prodotto -->
<g id="edge1" class="edge">
<title>root&#45;&gt;prodotto</title>
<path fill="none" stroke="#000000" d="M172.6084,-147.4297C161.2769,-137.3573 145.9866,-123.7659 133.1254,-112.3337"/>
<polygon fill="#000000" stroke="#000000" points="135.2879,-109.5731 125.4885,-105.5454 130.6374,-114.805 135.2879,-109.5731"/>
</g>
<!-- altezza -->
<g id="node6" class="node">
<title>altezza</title>
<ellipse fill="none" stroke="#000000" cx="189" cy="-90" rx="29.8707" ry="18"/>
<text text-anchor="middle" x="189" y="-86.7" font-family="Helvetica,sans-Serif" font-size="11.00" fill="#000000">altezza</text>
</g>
<!-- root&#45;&gt;altezza -->
<g id="edge5" class="edge">
<title>root&#45;&gt;altezza</title>
<path fill="none" stroke="#000000" d="M189,-143.8314C189,-136.131 189,-126.9743 189,-118.4166"/>
<polygon fill="#000000" stroke="#000000" points="192.5001,-118.4132 189,-108.4133 185.5001,-118.4133 192.5001,-118.4132"/>
</g>
<!-- larghezza -->
<g id="node7" class="node">
<title>larghezza</title>
<ellipse fill="none" stroke="#000000" cx="274" cy="-90" rx="37.4901" ry="18"/>
<text text-anchor="middle" x="274" y="-86.7" font-family="Helvetica,sans-Serif" font-size="11.00" fill="#000000">larghezza</text>
</g>
<!-- root&#45;&gt;larghezza -->
<g id="edge6" class="edge">
<title>root&#45;&gt;larghezza</title>
<path fill="none" stroke="#000000" d="M205.7933,-147.7751C217.7648,-137.6345 234.0953,-123.8016 247.7756,-112.2136"/>
<polygon fill="#000000" stroke="#000000" points="250.1028,-114.8292 255.4711,-105.6951 245.5784,-109.4879 250.1028,-114.8292"/>
</g>
<!-- nome -->
<g id="node3" class="node">
<title>nome</title>
<ellipse fill="none" stroke="#000000" cx="27" cy="-18" rx="27" ry="18"/>
<text text-anchor="middle" x="27" y="-14.7" font-family="Helvetica,sans-Serif" font-size="11.00" fill="#000000">nome</text>
</g>
<!-- prodotto&#45;&gt;nome -->
<g id="edge2" class="edge">
<title>prodotto&#45;&gt;nome</title>
<path fill="none" stroke="#000000" d="M90.4242,-74.3771C78.8647,-64.102 63.5901,-50.5246 50.9275,-39.2689"/>
<polygon fill="#000000" stroke="#000000" points="53.2367,-36.6387 43.4373,-32.6109 48.5861,-41.8705 53.2367,-36.6387"/>
</g>
<!-- quota_na -->
<g id="node4" class="node">
<title>quota_na</title>
<ellipse fill="none" stroke="#000000" cx="108" cy="-18" rx="36.3529" ry="18"/>
<text text-anchor="middle" x="108" y="-14.7" font-family="Helvetica,sans-Serif" font-size="11.00" fill="#000000">quota_na</text>
</g>
<!-- prodotto&#45;&gt;quota_na -->
<g id="edge3" class="edge">
<title>prodotto&#45;&gt;quota_na</title>
<path fill="none" stroke="#000000" d="M108,-71.8314C108,-64.131 108,-54.9743 108,-46.4166"/>
<polygon fill="#000000" stroke="#000000" points="111.5001,-46.4132 108,-36.4133 104.5001,-46.4133 111.5001,-46.4132"/>
</g>
<!-- quota_nc -->
<g id="node5" class="node">
<title>quota_nc</title>
<ellipse fill="none" stroke="#000000" cx="198" cy="-18" rx="36.1257" ry="18"/>
<text text-anchor="middle" x="198" y="-14.7" font-family="Helvetica,sans-Serif" font-size="11.00" fill="#000000">quota_nc</text>
</g>
<!-- prodotto&#45;&gt;quota_nc -->
<g id="edge4" class="edge">
<title>prodotto&#45;&gt;quota_nc</title>
<path fill="none" stroke="#000000" d="M126.6481,-75.0816C139.388,-64.8896 156.4788,-51.217 170.7396,-39.8083"/>
<polygon fill="#000000" stroke="#000000" points="173.1326,-42.3761 178.7549,-33.3961 168.7597,-36.91 173.1326,-42.3761"/>
</g>
</g>
</svg>
