<svg xmlns="http://www.w3.org/2000/svg" viewBox="0 0 18 18"><title>anchor</title><g id="Layer_2" data-name="Layer 2"><g id="Layer_1-2" data-name="Layer 1"><path id="_Compound_Path_" data-name="&lt;Compound Path&gt;" d="M17.77,12.5,13.11,7.84a.78.78,0,0,0-1.11,0L10.48,9.37,8.63,7.52,10.16,6a.78.78,0,0,0,0-1.11L5.5.23A.78.78,0,0,0,4.4.23L.23,4.4a.78.78,0,0,0,0,1.11l4.66,4.66a.78.78,0,0,0,1.11,0L7.52,8.63l1.85,1.85L7.84,12a.78.78,0,0,0,0,1.11l4.66,4.66a.78.78,0,0,0,1.11,0l4.17-4.17A.78.78,0,0,0,17.77,12.5ZM5.44,8.5,1.89,4.95,4.95,1.89,8.5,5.44l-1,1-.59-.59A.78.78,0,1,0,5.82,6.93l.59.59Zm7.61,7.61L9.5,12.56l1-1,.59.59a.78.78,0,0,0,1.11-1.11l-.59-.59,1-1,3.55,3.55Z"/></g></g></svg>