<svg xmlns="http://www.w3.org/2000/svg" viewBox="0 0 24 24"><defs><style>.cls-1{fill:#fff;}</style></defs><title>note</title><g id="Layer_2" data-name="Layer 2"><g id="Layer_1-2" data-name="Layer 1"><path id="_Compound_Path_" data-name="&lt;Compound Path&gt;" class="cls-1" d="M11.3,19.25a.91.91,0,0,1-.9-1.09l1.29-6.52L11,12a.91.91,0,0,1-.9-1.59l2.43-1.37a.91.91,0,0,1,1.34,1l-1.33,6.76,1.09-.48A.91.91,0,0,1,14.35,18l-2.69,1.17A.91.91,0,0,1,11.3,19.25ZM13.89,6.8a1.3,1.3,0,1,0-.92.38A1.31,1.31,0,0,0,13.89,6.8ZM24,12A12,12,0,1,0,12,24,12,12,0,0,0,24,12Zm-2.09,0A9.91,9.91,0,1,1,12,2.09,9.92,9.92,0,0,1,21.91,12Z"/></g></g></svg>