<svg xmlns="http://www.w3.org/2000/svg" viewBox="0 0 15.65 24"><defs><style>.cls-1{fill:#fff;}</style></defs><title>icon-tip</title><g id="Layer_2" data-name="Layer 2"><g id="Layer_1-2" data-name="Layer 1"><path class="cls-1" d="M7.83,0A7.9,7.9,0,0,0,0,7.91a7.16,7.16,0,0,0,3.13,6.23V16.7a1.13,1.13,0,0,0,1.11,1h.1l7.18-.58a1.09,1.09,0,0,0,1-1v-2a7.74,7.74,0,0,0,3.13-6.25A7.89,7.89,0,0,0,7.83,0Zm3.12,12.65a1,1,0,0,0-.51.92v1.59l-5.22.41v-2a1,1,0,0,0-.47-.9A5.09,5.09,0,0,1,2.1,7.91,5.78,5.78,0,0,1,7.82,2.09a5.79,5.79,0,0,1,5.73,5.82A5.19,5.19,0,0,1,10.95,12.65Zm1.48,6.74a1,1,0,0,1-1,1.12L4.35,21H4.27a1,1,0,0,1-.07-2.08l7.13-.52A1,1,0,0,1,12.43,19.38Zm-2.27,3.3a1,1,0,0,1-1,1.12L6.62,24H6.54a1,1,0,0,1-.08-2.08L9,21.72A1,1,0,0,1,10.16,22.68ZM12,7.89a.91.91,0,0,1-.9.82H11a.91.91,0,0,1-.82-1A2,2,0,0,0,8.87,5.64a.92.92,0,0,1-.54-1.17.9.9,0,0,1,1.15-.55A3.83,3.83,0,0,1,12,7.89Z"/></g></g></svg>