<svg xmlns="http://www.w3.org/2000/svg" viewBox="0 0 21.92 24"><defs><style>.cls-1{fill:#fff;}</style></defs><title>warning</title><g id="Layer_2" data-name="Layer 2"><g id="Layer_1-2" data-name="Layer 1"><path id="_Compound_Path_" data-name="&lt;Compound Path&gt;" class="cls-1" d="M20.87,18.67c-1.76,0-2.43-1-2.43-7.41,0-5-2.27-8.15-6.18-8.61V1a1,1,0,1,0-2.09,0V2.61C6,2.95,3.58,6.12,3.58,11.25c0,6.38-.76,7.41-2.52,7.41a1,1,0,0,0-1.06,1,1,1,0,0,0,1,1H7.82a4.26,4.26,0,0,0,1,2.44A2.84,2.84,0,0,0,10.9,24,2.92,2.92,0,0,0,13,23.06a4.33,4.33,0,0,0,1-2.43h6.8a1,1,0,1,0,0-2Zm-9.34,3a.78.78,0,0,1-.63.27.73.73,0,0,1-.6-.27,1.64,1.64,0,0,1-.38-1h2A1.65,1.65,0,0,1,11.53,21.64Zm-.43-3.1H4.63c1-1.83,1-4.67,1-7.33,0-4.25,1.84-6.5,5.19-6.5h.3c3.35,0,5.19,2.25,5.19,6.5,0,2.66,0,5.5,1,7.33Zm3.72-9.26a.91.91,0,0,1-.86,1h-.05A.91.91,0,0,1,13,9.39a1.91,1.91,0,0,0-1.09-1.64.92.92,0,0,1-.49-1.19.91.91,0,0,1,1.18-.5A3.77,3.77,0,0,1,14.82,9.28Z"/></g></g></svg>