<svg xmlns="http://www.w3.org/2000/svg" viewBox="0 0 24 24"><defs><style>.cls-1{fill:#fff;}</style></defs><title>wip</title><g id="Layer_2" data-name="Layer 2"><g id="Layer_1-2" data-name="Layer 1"><path id="_Compound_Path_" data-name="&lt;Compound Path&gt;" class="cls-1" d="M12,17a5,5,0,1,1,5-5A5,5,0,0,1,12,17Zm0-8.21A3.18,3.18,0,1,0,15.18,12,3.19,3.19,0,0,0,12,8.82ZM12,24h-.14a15.24,15.24,0,0,1-1.74-.1.92.92,0,0,1-.8-.79l-.26-1.87a9.61,9.61,0,0,1-1.66-.7L5.94,21.65a.92.92,0,0,1-1.12,0,15.23,15.23,0,0,1-1.3-1.15l-.1-.1a15.26,15.26,0,0,1-1.15-1.3.92.92,0,0,1,0-1.12l1.14-1.5a9.61,9.61,0,0,1-.67-1.66L.89,14.53a.92.92,0,0,1-.79-.8A15.24,15.24,0,0,1,0,12v-.14a15.24,15.24,0,0,1,.1-1.74.92.92,0,0,1,.79-.8l1.87-.26a9.62,9.62,0,0,1,.7-1.65L2.35,5.94a.92.92,0,0,1,0-1.12,15.23,15.23,0,0,1,1.15-1.3l.1-.1a15.26,15.26,0,0,1,1.3-1.15A.92.92,0,0,1,6,2.26L7.55,3.4a9.62,9.62,0,0,1,1.66-.67L9.47.89a.92.92,0,0,1,.8-.79A15.24,15.24,0,0,1,12,0h.14a15.24,15.24,0,0,1,1.74.1.92.92,0,0,1,.8.79l.26,1.87a9.62,9.62,0,0,1,1.65.7l1.48-1.11a.92.92,0,0,1,1.12,0,15.23,15.23,0,0,1,1.3,1.15l.1.1a15.23,15.23,0,0,1,1.15,1.3.92.92,0,0,1,0,1.12L20.6,7.54a9.61,9.61,0,0,1,.68,1.66l1.83.26a.92.92,0,0,1,.79.8A15.24,15.24,0,0,1,24,12v.14a15.24,15.24,0,0,1-.1,1.74.92.92,0,0,1-.79.8l-1.87.26a9.59,9.59,0,0,1-.7,1.65l1.11,1.48a.92.92,0,0,1,0,1.12,15.21,15.21,0,0,1-1.15,1.3l-.1.1a15.25,15.25,0,0,1-1.3,1.15.92.92,0,0,1-1.12,0L16.45,20.6a9.63,9.63,0,0,1-1.66.67l-.26,1.84a.92.92,0,0,1-.8.79A15.24,15.24,0,0,1,12,24Zm-.95-1.87.8,0H12l.81,0,.24-1.72a.92.92,0,0,1,.71-.77,7.8,7.8,0,0,0,2.29-.93.92.92,0,0,1,1.07.08l1.37,1c.18-.16.38-.35.59-.55l.1-.1c.21-.21.39-.41.55-.59l-1-1.39a.92.92,0,0,1,0-1,7.77,7.77,0,0,0,1-2.22.92.92,0,0,1,.78-.76l1.75-.24c0-.24,0-.52,0-.8V12c0-.29,0-.57,0-.81l-1.71-.24a.92.92,0,0,1-.77-.71A7.78,7.78,0,0,0,18.73,8a.92.92,0,0,1,0-1.06l1.06-1.4c-.16-.18-.35-.38-.55-.59l-.1-.1c-.21-.21-.41-.39-.59-.55l-1.39,1a.92.92,0,0,1-1.1,0,7.79,7.79,0,0,0-2.22-.93.92.92,0,0,1-.69-.77l-.24-1.75-.8,0H12l-.81,0-.24,1.72a.92.92,0,0,1-.77.78,7.78,7.78,0,0,0-2.23.91A.92.92,0,0,1,6.87,5.2l-1.36-1c-.18.16-.38.35-.59.55l-.1.1c-.21.21-.39.41-.55.59l1,1.39a.92.92,0,0,1,.05,1l-.05.08a7.78,7.78,0,0,0-.93,2.21.92.92,0,0,1-.77.69l-1.74.24c0,.24,0,.52,0,.8V12c0,.29,0,.57,0,.81l1.72.24a.92.92,0,0,1,.78.79v0a7.78,7.78,0,0,0,.9,2.19.92.92,0,0,1-.09,1.08l-1,1.36c.16.18.35.38.55.59l.1.1c.21.21.41.39.59.55l1.39-1a.92.92,0,0,1,1.15,0,7.78,7.78,0,0,0,2.17.9.92.92,0,0,1,.69.77Z"/></g></g></svg>