<svg xmlns="http://www.w3.org/2000/svg" viewBox="0 0 24 21.39"><defs><style>.cls-1{fill:#fff;}</style></defs><title>icon-alert</title><g id="Layer_2" data-name="Layer 2"><g id="Layer_1-2" data-name="Layer 1"><path id="_Compound_Path_" data-name="&lt;Compound Path&gt;" class="cls-1" d="M23,21.39H1a1,1,0,0,1-.91-1.56l11-19.3a1,1,0,0,1,1.81,0l11,19.3A1,1,0,0,1,23,21.39ZM2.84,19.3H21.16L12,3.16ZM13,13.07V8.21a1,1,0,0,0-2.09,0v4.85a1,1,0,0,0,2.09,0Zm-.12,4.33a1.31,1.31,0,1,0-.92.38A1.32,1.32,0,0,0,12.92,17.4Z"/></g></g></svg>