<svg xmlns="http://www.w3.org/2000/svg" viewBox="0 0 24 24"><defs><style>.cls-1{fill:#fff;}</style></defs><title>important</title><g id="Layer_2" data-name="Layer 2"><g id="Layer_1-2" data-name="Layer 1"><path id="_Compound_Path_" data-name="&lt;Compound Path&gt;" class="cls-1" d="M23.69,6.9,17.1.31a1,1,0,0,0-1.48,0,5,5,0,0,0-1.26,4.58l-3,3c-1.63-.5-5.85-1.35-9,1.75a1,1,0,0,0,0,1.48l4.5,4.5L.31,22.22a1,1,0,0,0,1.48,1.48L8.4,17.07l4.5,4.5a1,1,0,0,0,1.48,0c3.11-3.11,2.25-7.32,1.75-9l3-3a5,5,0,0,0,4.58-1.26A1,1,0,0,0,23.69,6.9Zm-4.4.58a1,1,0,0,0-1.18.21L14.19,11.6A1,1,0,0,0,14,12.73a9.29,9.29,0,0,1,.55,2.7,6.14,6.14,0,0,1-1,3.85L9.14,14.86h0L4.72,10.43C7.51,8.54,11.1,10,11.27,10a1,1,0,0,0,1.14-.23l3.92-3.92a1,1,0,0,0,.21-1.18,2.41,2.41,0,0,1,0-2l4.8,4.8A2.41,2.41,0,0,1,19.29,7.47Zm-6.18,5.65a4.14,4.14,0,0,1,.34,1.64.91.91,0,0,1-.91.89h0a.91.91,0,0,1-.89-.94,2.32,2.32,0,0,0-.18-.85.91.91,0,0,1,1.67-.74Z"/></g></g></svg>